<svg width="34" height="43" viewBox="0 0 34 43" fill="none" xmlns="http://www.w3.org/2000/svg">
<path d="M17 42.9976C12.1202 41.5631 8.06691 38.6373 4.84014 34.2202C1.61338 29.803 0 24.8257 0 19.2882V6.28676L17 0L34 6.28676V19.2882C34 24.8241 32.3866 29.8006 29.1599 34.2178C25.9331 38.6349 21.8798 41.5599 17 42.9976ZM17 40.4468C21.2095 39.1246 24.6905 36.48 27.4429 32.5133C30.1952 28.5465 31.5714 24.1389 31.5714 19.2906V7.92877L17 2.5676L2.42857 7.92877V19.2882C2.42857 24.1365 3.80476 28.5441 6.55714 32.5108C9.30952 36.4776 12.7905 39.1246 17 40.4468Z" fill="white"/>
</svg>
