<svg width="37" height="37" viewBox="0 0 37 37" fill="none" xmlns="http://www.w3.org/2000/svg">
<path d="M19.1813 2.09326C16.6058 2.09254 14.0694 2.72437 11.7952 3.93325C9.52092 5.14213 7.57837 6.89106 6.1382 9.02636C4.69803 11.1617 3.80432 13.618 3.5356 16.1795C3.26688 18.741 3.63136 21.3293 4.59703 23.717C4.6488 23.8447 4.67493 23.9813 4.67391 24.119C4.6729 24.2567 4.64476 24.3929 4.59112 24.5198C4.53747 24.6466 4.45937 24.7617 4.36126 24.8584C4.26315 24.955 4.14696 25.0314 4.01932 25.0832C3.89168 25.135 3.7551 25.1611 3.61737 25.1601C3.47963 25.1591 3.34345 25.1309 3.21659 25.0773C3.08973 25.0236 2.97468 24.9455 2.878 24.8474C2.78133 24.7493 2.70493 24.6331 2.65316 24.5055C1.11224 20.6945 0.935972 16.468 2.15421 12.5419C3.37244 8.61581 5.91029 5.23148 9.33789 2.96216C12.7655 0.69283 16.8721 -0.321987 20.9622 0.0895924C25.0523 0.501172 28.8744 2.31385 31.7812 5.22059C34.6879 8.12733 36.5006 11.9494 36.9122 16.0395C37.3237 20.1296 36.3089 24.2363 34.0396 27.6639C31.7703 31.0915 28.3859 33.6293 24.4599 34.8475C20.5338 36.0658 16.3073 35.8895 12.4963 34.3486C12.2403 34.243 12.0365 34.0405 11.9293 33.7853C11.8221 33.5301 11.8202 33.2428 11.9241 32.9861C12.0279 32.7295 12.229 32.5243 12.4835 32.4154C12.738 32.3065 13.0253 32.3026 13.2826 32.4047C15.433 33.2725 17.7486 33.6541 20.0637 33.522C22.3789 33.39 24.6361 32.7477 26.6739 31.641C28.7117 30.5343 30.4795 28.9908 31.8508 27.1208C33.2221 25.2508 34.1629 23.1008 34.6058 20.8246C35.0488 18.5484 34.9829 16.2025 34.4129 13.9547C33.843 11.707 32.783 9.61313 31.309 7.82306C29.8349 6.03299 27.9833 4.59103 25.8866 3.60045C23.79 2.60987 21.5002 2.09519 19.1813 2.09326Z" fill="white"/>
<path d="M7.6483 17.8204C7.6483 20.6283 8.65065 23.2012 10.3177 25.2017L9.31119 26.2083H6.11753C5.28359 26.209 4.48407 26.5409 3.89476 27.1309L0.459947 30.5636C0.240278 30.7836 0.0907136 31.0637 0.0301444 31.3686C-0.0304248 31.6735 0.000717854 31.9895 0.119639 32.2767C0.23856 32.5639 0.439925 32.8094 0.698303 32.9822C0.95668 33.1551 1.26048 33.2475 1.57133 33.2477H3.75216V35.4286C3.75244 35.7394 3.84482 36.0432 4.01765 36.3016C4.19048 36.56 4.43601 36.7613 4.72321 36.8803C5.01042 36.9992 5.32642 37.0303 5.63132 36.9698C5.93621 36.9092 6.21632 36.7596 6.43626 36.5399L9.86898 33.1051C10.4593 32.5167 10.7919 31.718 10.7937 30.8845V27.6929L11.8003 26.6864C13.8158 28.3652 16.3434 29.3067 18.9661 29.3557C21.5888 29.4047 24.1498 28.5582 26.2266 26.9559C28.3035 25.3536 29.7721 23.0911 30.3901 20.5418C31.0081 17.9926 30.7387 15.3088 29.6262 12.9332C28.5137 10.5577 26.6247 8.63233 24.2707 7.47484C21.9168 6.31735 19.2386 5.99687 16.678 6.56627C14.1175 7.13566 11.8275 8.56092 10.1859 10.6069C8.54432 12.6529 7.64923 15.1973 7.6483 17.8204ZM19.1815 8.38416C20.6888 8.38466 22.174 8.7462 23.5128 9.43851C24.8516 10.1308 26.0051 11.1338 26.8767 12.3634C27.7484 13.593 28.3128 15.0135 28.5227 16.5061C28.7327 17.9986 28.582 19.5197 28.0834 20.9421C27.5848 22.3645 26.7527 23.6467 25.6569 24.6815C24.561 25.7162 23.2332 26.4735 21.7845 26.8897C20.3359 27.306 18.8087 27.3692 17.3306 27.0741C15.8526 26.7789 14.4668 26.134 13.2891 25.1933L17.0489 21.4335C17.9283 21.952 18.9665 22.1319 19.969 21.9397C20.9715 21.7474 21.8695 21.1961 22.4946 20.3891C23.1197 19.5821 23.429 18.5749 23.3646 17.5561C23.3002 16.5374 22.8664 15.5771 22.1446 14.8553C21.4228 14.1335 20.4625 13.6997 19.4438 13.6353C18.425 13.5709 17.4178 13.8802 16.6108 14.5053C15.8038 15.1304 15.2525 16.0284 15.0602 17.0309C14.868 18.0334 15.0479 19.0716 15.5664 19.951L11.8087 23.7108C10.6994 22.3225 10.0047 20.6491 9.80449 18.8834C9.60432 17.1176 9.90683 15.3312 10.6772 13.7298C11.4475 12.1284 12.6544 10.7771 14.159 9.83137C15.6635 8.88566 17.4045 8.38401 19.1815 8.38416ZM5.3773 28.6114C5.47485 28.5141 5.59062 28.4369 5.71799 28.3844C5.84537 28.3319 5.98184 28.305 6.11962 28.3052H8.69678V30.8824C8.69616 31.1602 8.5853 31.4264 8.38853 31.6226L5.85121 34.1599V32.1993C5.85121 31.9212 5.74075 31.6545 5.54412 31.4579C5.34749 31.2612 5.08081 31.1508 4.80274 31.1508H2.83999L5.3773 28.6114Z" fill="white"/>
</svg>
