<svg width="35" height="35" viewBox="0 0 35 35" fill="none" xmlns="http://www.w3.org/2000/svg">
<path d="M32.7073 23.0263L29.2862 20.6316C29.8501 18.6421 29.8877 16.4868 29.2862 14.3316L32.7073 11.9737L29.9817 7.36842L26.1657 9.06316C24.6807 7.58947 22.801 6.44737 20.6016 5.91316L20.2257 1.84211H14.7743L14.3984 5.91316C12.199 6.44737 10.3193 7.58947 8.83426 9.06316L5.01833 7.36842L2.29266 11.9737L5.71384 14.3316C5.11231 16.4868 5.14991 18.6421 5.71384 20.6316L2.29266 23.0263L5.01833 27.6316L8.83426 25.9184C10.3193 27.3737 12.199 28.4789 14.3984 29.05L14.7743 33.1579H20.2257L20.6016 29.05C22.801 28.4789 24.6807 27.3737 26.1657 25.9184L29.9817 27.6316L32.7073 23.0263ZM21.2595 0C21.7671 0 22.1994 0.368421 22.1994 0.847368L22.5378 4.60526C23.9664 5.12105 25.2447 5.87632 26.3913 6.77895L29.8689 5.17632C30.3012 4.95526 30.8464 5.10263 31.1095 5.52632L34.8691 11.9737C35.1322 12.3605 34.9819 12.8947 34.5683 13.1711L31.4291 15.3263C31.6735 16.8 31.6547 18.2553 31.4291 19.6737L34.5683 21.8289C34.9819 22.1053 35.1322 22.6395 34.8691 23.0263L31.1095 29.4737C30.8464 29.8605 30.3012 30.0079 29.8689 29.7868L26.3913 28.2026C25.2447 29.1053 23.9664 29.8421 22.5378 30.3947L22.1994 34.0789C22.1994 34.6132 21.7671 35 21.2595 35H13.7405C13.4912 35 13.2521 34.903 13.0759 34.7302C12.8996 34.5575 12.8006 34.3232 12.8006 34.0789L12.4622 30.3947C11.0336 29.8421 9.75535 29.1053 8.60869 28.2026L5.13111 29.7868C4.69877 30.0079 4.15363 29.8605 3.89046 29.4737L0.130924 23.0263C-0.132244 22.6395 0.0181376 22.1053 0.431687 21.8289L3.5709 19.6737C3.34533 18.2553 3.32653 16.8 3.5709 15.3263L0.431687 13.1711C0.0181376 12.8947 -0.132244 12.3605 0.130924 11.9737L3.89046 5.52632C4.15363 5.10263 4.69877 4.95526 5.13111 5.17632L8.60869 6.77895C9.75535 5.87632 11.0336 5.12105 12.4622 4.60526L12.8006 0.847368C12.8006 0.368421 13.2329 0 13.7405 0H21.2595ZM17.5 11.0526C19.2449 11.0526 20.9184 11.7319 22.1522 12.941C23.386 14.1501 24.0792 15.7901 24.0792 17.5C24.0792 19.2099 23.386 20.8499 22.1522 22.059C20.9184 23.2681 19.2449 23.9474 17.5 23.9474C15.7551 23.9474 14.0816 23.2681 12.8478 22.059C11.614 20.8499 10.9208 19.2099 10.9208 17.5C10.9208 15.7901 11.614 14.1501 12.8478 12.941C14.0816 11.7319 15.7551 11.0526 17.5 11.0526ZM17.5 12.8947C16.2536 12.8947 15.0583 13.3799 14.177 14.2436C13.2957 15.1072 12.8006 16.2786 12.8006 17.5C12.8006 18.7214 13.2957 19.8928 14.177 20.7564C15.0583 21.6201 16.2536 22.1053 17.5 22.1053C18.7464 22.1053 19.9417 21.6201 20.823 20.7564C21.7043 19.8928 22.1994 18.7214 22.1994 17.5C22.1994 16.2786 21.7043 15.1072 20.823 14.2436C19.9417 13.3799 18.7464 12.8947 17.5 12.8947Z" fill="white"/>
</svg>
