<svg width="36" height="36" viewBox="0 0 36 36" fill="none" xmlns="http://www.w3.org/2000/svg">
<path d="M18 0C22.7739 0 27.3523 1.89642 30.7279 5.27208C34.1036 8.64773 36 13.2261 36 18C36 22.7739 34.1036 27.3523 30.7279 30.7279C27.3523 34.1036 22.7739 36 18 36C13.2261 36 8.64773 34.1036 5.27208 30.7279C1.89642 27.3523 0 22.7739 0 18C0 13.2261 1.89642 8.64773 5.27208 5.27208C8.64773 1.89642 13.2261 0 18 0ZM18 1.89474C13.7286 1.89474 9.63218 3.59154 6.61186 6.61186C3.59154 9.63218 1.89474 13.7286 1.89474 18C1.89474 22.2714 3.59154 26.3678 6.61186 29.3881C9.63218 32.4085 13.7286 34.1053 18 34.1053C20.115 34.1053 22.2092 33.6887 24.1632 32.8793C26.1172 32.07 27.8926 30.8837 29.3881 29.3881C30.8837 27.8926 32.07 26.1172 32.8793 24.1632C33.6887 22.2092 34.1053 20.115 34.1053 18C34.1053 13.7286 32.4085 9.63218 29.3881 6.61186C26.3678 3.59154 22.2714 1.89474 18 1.89474ZM17.0526 7.57895H18.9474V17.8484L27.8526 22.9832L26.9053 24.6316L17.0526 18.9474V7.57895Z" fill="white"/>
</svg>
