<svg width="42" height="42" viewBox="0 0 42 42" fill="none" xmlns="http://www.w3.org/2000/svg">
<path d="M20.8916 22.1289L20.9707 22.3418L21.1836 22.4209L31.3896 26.25L21.1836 30.0791L20.9707 30.1582L20.8916 30.3711L17.0625 40.5771L13.2334 30.3711L13.1543 30.1582L12.9414 30.0791L2.73438 26.25L12.9414 22.4209L13.1543 22.3418L13.2334 22.1289L17.0625 11.9219L20.8916 22.1289ZM34.8975 9.44043L34.9775 9.64746L35.1846 9.72754L40.6055 11.8125L35.1846 13.8975L34.9775 13.9775L34.8975 14.1846L32.8125 19.6055L30.7275 14.1846L30.6475 13.9775L30.4404 13.8975L25.0186 11.8125L30.4404 9.72754L30.6475 9.64746L30.7275 9.44043L32.8125 4.01855L34.8975 9.44043ZM8.68262 5.45703L8.7627 5.6748L8.98047 5.75488L12.9814 7.21875L8.98047 8.68262L8.7627 8.7627L8.68262 8.98047L7.21875 12.9814L5.75488 8.98047L5.6748 8.7627L5.45703 8.68262L1.45508 7.21875L5.45703 5.75488L5.6748 5.6748L5.75488 5.45703L7.21875 1.45508L8.68262 5.45703Z" stroke="white"/>
</svg>
